<svg xmlns="http://www.w3.org/2000/svg" viewBox="0 0 373.23 373.96"><defs><style>.cls-1{fill:#fff;}.cls-2{fill:#ffd800;}</style></defs><title>Asset 4</title><g id="Layer_2" data-name="Layer 2"><g id="Layer_1-2" data-name="Layer 1"><path class="cls-1" d="M373.23,106.56a153.12,153.12,0,0,1-44,12,76.74,76.74,0,0,0,33.67-42.36,153.48,153.48,0,0,1-48.63,18.58A76.45,76.45,0,0,0,258.4,70.65c-49.44,0-85.77,46.12-74.6,94A217.36,217.36,0,0,1,26,84.66,76.65,76.65,0,0,0,49.67,186.89,76.17,76.17,0,0,1,15,177.31c-.84,35.48,24.58,68.66,61.41,76.05a76.84,76.84,0,0,1-34.59,1.31,76.64,76.64,0,0,0,71.54,53.16A154,154,0,0,1,0,339.56,216.83,216.83,0,0,0,117.38,374C259.55,374,339.87,253.89,335,146.2A156,156,0,0,0,373.23,106.56Z"/><g id="Layer_1-2-2" data-name="Layer 1-2"><path class="cls-2" d="M346.11,2.77c-26.11,29.73-61,45.35-96.76,43.31-24.56-1.69-52.3-10.51-71.39,8.22-13,14.77-18.53,36.92-14.36,58a196.3,196.3,0,0,0,20.83,55c3.94-29.51,26-51.91,48.52-64.24,23.49-12.88,49.85-18.23,73.42-31.9S351.74,31.71,352.23,0Z"/></g></g></g></svg>