<svg id="Layer_1" data-name="Layer 1" xmlns="http://www.w3.org/2000/svg" xmlns:xlink="http://www.w3.org/1999/xlink" viewBox="0 0 49.91 46.67"><defs><style>.cls-1{fill:none;}.cls-2{clip-path:url(#clip-path);}.cls-3{fill:#363a94;}.cls-4{fill:#b22d25;}.cls-5{fill:#fff;}.cls-6{fill:#ffd800;}</style><clipPath id="clip-path"><path class="cls-1" d="M49.91,10.91A20.09,20.09,0,0,1,44,12.52a10.23,10.23,0,0,0,4.5-5.66A20.62,20.62,0,0,1,42,9.34a10.25,10.25,0,0,0-17.45,9.34A29.09,29.09,0,0,1,3.47,8,10.25,10.25,0,0,0,6.64,21.65,10.12,10.12,0,0,1,2,20.37a10.22,10.22,0,0,0,8.21,10.17,10.26,10.26,0,0,1-4.63.18,10.27,10.27,0,0,0,9.57,7.11A20.61,20.61,0,0,1,0,42.07a29,29,0,0,0,15.7,4.6c19,0,29.75-16.06,29.1-30.46A20.77,20.77,0,0,0,49.91,10.91Z"/></clipPath></defs><title>Artboard 1</title><g class="cls-2"><rect class="cls-3" x="-39.54" y="1.52" width="112.17" height="30.1" transform="translate(-6.34 11.6) rotate(-32.79)"/><rect class="cls-4" x="-27.54" y="28.09" width="112.17" height="14.22" transform="translate(-14.51 21.07) rotate(-32.79)"/></g><polygon class="cls-5" points="33.18 27.09 30.3 27.24 28.8 29.7 27.76 27.01 24.95 26.34 27.2 24.52 26.97 21.65 29.39 23.21 32.05 22.11 31.31 24.9 33.18 27.09"/><path class="cls-6" d="M44.81,0c-.06,3.2-2.73,5.8-5.62,7.18s-6.12,1.92-9,3.22-5.72,3.71-6,6.89l.24-.14a17.84,17.84,0,0,1-2.66-5.82,6.06,6.06,0,0,1,1.76-5.85c2.34-1.89,5.74-1,8.74-.83A16.24,16.24,0,0,0,44.06.28"/></svg>