<svg id="Layer_1" data-name="Layer 1" xmlns="http://www.w3.org/2000/svg" viewBox="0 0 317.32 152.49"><defs><style>.cls-1{fill:#fff;}.cls-2{fill:#ffd800;}</style></defs><title>Artboard 1</title><path class="cls-1" d="M15.21,13.88v7.86H31.43V34.82H15.21V51.49H0V.81H32.44V13.88Z"/><path class="cls-1" d="M61.84,51.49,54.41,34.6h-2V51.49H37.17V.81H57.45C63.2.81,67.59,1.91,71,4.48A15.39,15.39,0,0,1,76.71,17c0,10.28-5.74,14-7.77,15.28L79.42,51.49ZM59.61,14.25a4.88,4.88,0,0,0-3.38-1H52.38v8.82h3.85c2.64,0,5.07-1.1,5.07-4.41A3.71,3.71,0,0,0,59.61,14.25Z"/><path class="cls-1" d="M81.78,51.49V.81H114.9V13.88H97v5.51h16.9v13H97v5.88h18.59V51.49Z"/><path class="cls-1" d="M121,51.49V.81H154.1V13.88H136.19v5.51h16.9v13h-16.9v5.88h18.59V51.49Z"/><path class="cls-1" d="M177.75,51.49H160.18V.81h17.57c15.48,0,26.36,7.12,26.36,25.34S193.23,51.49,177.75,51.49ZM178.9,14.4h-3.51V37.53h3.51c6.83,0,9.8-4.18,9.8-11.38S186,14.4,178.9,14.4Z"/><path class="cls-1" d="M232.16,52.37c-14.53,0-25.35-9.62-25.35-26.15S217.63,0,232.16,0s25.35,9.7,25.35,26.22S246.69,52.37,232.16,52.37Zm0-38.34c-6.08,0-10,4.85-10,11.82s3.92,11.83,10,11.83,9.94-4.85,9.94-11.83S238.24,14,232.16,14Z"/><path class="cls-1" d="M302.32,51.49l-.54-29-6.09,29H282.51l-6.08-29-.54,29h-15L263.59.81h19.6l5.88,27.54L295,.81h19.6l2.7,50.68Z"/><path class="cls-1" d="M29.92,82.71v37.75H14.65V82.71H3.7V69.78H40.94V82.71Z"/><path class="cls-1" d="M71,100.63v19.83H55.74V100.63L39.59,69.78H56.48l6.9,17.11,7-17.11h16.9Z"/><path class="cls-1" d="M109.54,104.67h-5v15.79H89.26V69.78h20.28c10.54,0,18.25,5.14,18.25,17.48S120,104.67,109.54,104.67ZM107,82.27h-2.5v9.91H107c3.18,0,5.41-1,5.41-4.92S110.08,82.27,107,82.27Z"/><path class="cls-1" d="M131.5,120.46V69.78h33.13V82.85H146.71v5.51h16.9v13h-16.9v5.88H165.3v13.22Z"/><path class="cls-1" d="M195.38,120.46l-7.44-16.89h-2v16.89H170.7V69.78H191c5.75,0,10.14,1.1,13.52,3.67a15.4,15.4,0,0,1,5.75,12.49c0,10.28-5.75,14-7.78,15.28L213,120.46Zm-2.23-37.24a4.9,4.9,0,0,0-3.38-1h-3.86v8.81h3.86c2.63,0,5.07-1.1,5.07-4.41A3.74,3.74,0,0,0,193.15,83.22Z"/><g id="Layer_1-2" data-name="Layer 1-2"><path class="cls-1" d="M317.29,88.79a31.61,31.61,0,0,1-9.64,2.87A18.14,18.14,0,0,0,315,81.57,32.07,32.07,0,0,1,304.37,86a15.88,15.88,0,0,0-23.75-.81,19.28,19.28,0,0,0-4.86,17.45c-13.5-.74-26.08-7.66-34.6-19.06-4.45,8.34-2.17,19,5.21,24.36a15.71,15.71,0,0,1-7.61-2.29c-.1,8.77,5.55,16.38,13.46,18.12a15.45,15.45,0,0,1-7.58.31c2.19,7.43,8.5,12.52,15.68,12.67a31.92,31.92,0,0,1-24.85,7.56,44.83,44.83,0,0,0,25.73,8.19c31.17,0,48.78-28.6,47.7-54.26A36,36,0,0,0,317.29,88.79Z"/></g><g id="Layer_1-2-2" data-name="Layer 1-2"><g id="Layer_1-2-2-2" data-name="Layer 1-2-2"><path class="cls-2" d="M312.76,62.72c-.11,7.68-5,13.92-10.22,17.23s-11.16,4.6-16.41,7.72-10.42,8.9-10.95,16.53l.44-.34a49.58,49.58,0,0,1-5-14,17.69,17.69,0,0,1,3.21-14c4.26-4.53,10.46-2.4,15.95-2,8,.49,15.78-3.28,21.61-10.47"/></g></g></svg>